<svg width="64" height="64" viewBox="0 0 64 64" fill="none" xmlns="http://www.w3.org/2000/svg">
<path d="M17.6141 40.2188H7.80078C9.10012 44.6759 11.5113 48.6712 15.0412 52.2012C20.6688 57.8299 27.4356 60.6395 35.3489 60.6395C36.9307 60.6395 38.4633 60.5217 39.952 60.2973C45.9124 59.3976 51.1308 56.7028 55.602 52.2012C59.1548 48.6724 61.583 44.6759 62.8923 40.2188H58.9099H53.0866H17.6141Z" fill="#2C2255"/>
<path d="M12.2027 26.8903H7.07621C6.88866 28.0167 6.7609 29.1666 6.70288 30.3458H12.7958H15.8522H59.9693H63.9963C63.9377 29.1666 63.8099 28.0167 63.6206 26.8903" fill="#2C2255"/>
<path d="M6.70288 33.5546C6.7609 34.7343 6.88808 35.8842 7.07621 37.0101H12.406H16.4459H59.6095H63.6218C63.8105 35.8842 63.9394 34.7343 63.998 33.5546" fill="#2C2255"/>
<path d="M62.8935 23.6808C61.5854 19.2113 59.1567 15.1979 55.6021 11.6427C51.1426 7.18382 45.9388 4.50777 39.9977 3.60755C38.495 3.37956 36.9472 3.26001 35.3489 3.26001C27.4357 3.26001 20.6682 6.05503 15.0413 11.6427C11.5101 15.1979 9.09783 19.2113 7.79907 23.6808" fill="#2C2255"/>
<path d="M4.99926 31.951C4.99926 16.8161 16.3663 4.24057 31.1537 2.02871C30.7868 2.01523 30.4181 2 30.0477 2C13.4535 2 0 15.4101 0 31.951C0 48.4925 13.4529 61.9015 30.0477 61.9015C30.4193 61.9015 30.7879 61.888 31.156 61.8739C16.3663 59.662 4.99926 47.0865 4.99926 31.951Z" fill="#F7941E"/>
<path d="M54.8471 30.3452C54.751 29.1607 54.5517 28.0055 54.254 26.8896H16.446C16.1483 28.0044 15.9484 29.1601 15.8523 30.3452H54.8471Z" fill="url(#paint0_linear_7243_12112)"/>
<path d="M54.847 33.5546H15.8528C15.9489 34.739 16.1476 35.8936 16.4459 37.0101H54.2545C54.5522 35.8942 54.7509 34.739 54.847 33.5546Z" fill="url(#paint1_linear_7243_12112)"/>
<path d="M35.3498 51.5191C43.2015 51.5191 49.9696 46.8931 53.0863 40.2189H17.6133C20.7301 46.8931 27.4981 51.5191 35.3498 51.5191Z" fill="url(#paint2_linear_7243_12112)"/>
<path d="M12.963 33.5544H15.8254H54.9204H60.0562H63.9578C63.9847 33.044 64 32.53 64 32.0119C64 31.4522 63.9794 30.8977 63.9478 30.3445H60.0556H54.9198H15.8248H12.7602H6.70304C6.67139 30.8966 6.65088 31.4522 6.65088 32.0119C6.65088 32.53 6.66612 33.044 6.69308 33.5544H12.963Z" fill="white"/>
<path d="M17.4993 23.6808H7.79847C7.47964 24.7258 7.27392 25.7977 7.07642 26.8908H12.0727H16.3271H54.2342H59.6026H63.4397C63.2416 25.7989 62.9867 24.7269 62.6684 23.6808" fill="white"/>
<path d="M59.7545 37.0094H54.386H16.4796H12.4286H7.07593C7.26816 38.1013 7.48677 39.1726 7.80032 40.2188H17.6506H53.2151H59.0536H62.8561C63.169 39.1738 63.4216 38.1024 63.6145 37.0094H59.7545Z" fill="white"/>
<defs>
<linearGradient id="paint0_linear_7243_12112" x1="35.3493" y1="64.5343" x2="35.3493" y2="21.3784" gradientUnits="userSpaceOnUse">
<stop offset="0.3033" stop-color="#473788"/>
<stop offset="0.872" stop-color="#2C2255"/>
</linearGradient>
<linearGradient id="paint1_linear_7243_12112" x1="35.3497" y1="64.5349" x2="35.3497" y2="21.379" gradientUnits="userSpaceOnUse">
<stop offset="0.3033" stop-color="#473788"/>
<stop offset="0.872" stop-color="#2C2255"/>
</linearGradient>
<linearGradient id="paint2_linear_7243_12112" x1="35.3496" y1="64.5332" x2="35.3496" y2="21.3804" gradientUnits="userSpaceOnUse">
<stop offset="0.3033" stop-color="#473788"/>
<stop offset="0.8631" stop-color="#2C2255"/>
</linearGradient>
</defs>
</svg>
